<svg width="32" height="32" viewBox="0 0 32 32" fill="none" xmlns="http://www.w3.org/2000/svg">
<path d="M30.6667 17.3056H1.33333C0.597331 17.3056 0 16.7083 0 15.9722C0 15.2362 0.597331 14.6389 1.33333 14.6389H30.6667C31.4027 14.6389 32 15.2362 32 15.9722C32 16.7083 31.4027 17.3056 30.6667 17.3056Z" fill="#EBEBEB"/>
<path d="M30.6667 7.08342H1.33333C0.597331 7.08342 0 6.48608 0 5.75008C0 5.01408 0.597331 4.41675 1.33333 4.41675H30.6667C31.4027 4.41675 32 5.01408 32 5.75008C32 6.48608 31.4027 7.08342 30.6667 7.08342Z" fill="#EBEBEB"/>
<path d="M30.6667 27.5278H1.33333C0.597331 27.5278 0 26.9304 0 26.1944C0 25.4584 0.597331 24.8611 1.33333 24.8611H30.6667C31.4027 24.8611 32 25.4584 32 26.1944C32 26.9304 31.4027 27.5278 30.6667 27.5278Z" fill="#EBEBEB"/>
</svg>
