<svg width="256" height="48" viewBox="0 0 256 48" fill="none" xmlns="http://www.w3.org/2000/svg">
<circle cx="21" cy="21" r="21" fill="#1B1B1B"/>
<ellipse cx="20.9998" cy="17.64" rx="16.8" ry="16.8" fill="#EBEBEB"/>
<circle cx="20.9999" cy="14.28" r="12.6" fill="#1B1B1B"/>
<ellipse cx="21.0002" cy="17.64" rx="8.4" ry="8.4" fill="#EBEBEB"/>
<path d="M96.4 34.64H96.976V35H89.164V34.676H89.704C90.112 34.676 90.46 34.52 90.748 34.208C91.036 33.872 91.156 33.512 91.108 33.128L89.488 15.02L81.928 31.832C81.256 33.296 80.848 34.52 80.704 35.504H80.344L71.128 15.524L69.58 33.128C69.532 33.512 69.652 33.872 69.94 34.208C70.228 34.52 70.564 34.676 70.948 34.676H71.524V35H64.54V34.64H65.116C65.788 34.64 66.364 34.436 66.844 34.028C67.348 33.62 67.648 33.068 67.744 32.372L70.444 9.296H70.804L80.848 31.004L90.676 9.296H91L93.772 32.372C93.892 33.332 94.372 34.004 95.212 34.388C95.572 34.556 95.968 34.64 96.4 34.64ZM120.724 13.76H120.292C119.644 13.76 119.02 13.94 118.42 14.3C117.844 14.636 117.364 15.068 116.98 15.596L110.068 26.072V32.696C110.068 33.224 110.272 33.68 110.68 34.064C111.088 34.448 111.58 34.64 112.156 34.64H112.588V35H105.208V34.64H105.64C106.216 34.64 106.708 34.448 107.116 34.064C107.524 33.68 107.728 33.224 107.728 32.696V26.036L101.068 15.56C100.252 14.36 99.1479 13.76 97.7559 13.76H97.3239V13.4H105.676V13.76H105.244C104.788 13.76 104.452 13.904 104.236 14.192C104.044 14.48 103.948 14.732 103.948 14.948C103.948 15.14 103.972 15.32 104.02 15.488L109.276 24.812L114.856 15.524C114.928 15.332 114.964 15.14 114.964 14.948C114.964 14.732 114.856 14.48 114.64 14.192C114.448 13.904 114.112 13.76 113.632 13.76H113.2V13.4H120.724V13.76ZM140.475 35H131.691L131.727 34.64H132.159C132.783 34.64 133.311 34.424 133.743 33.992C134.199 33.56 134.439 33.032 134.463 32.408V12.392C134.463 11.768 134.235 11.24 133.779 10.808C133.323 10.376 132.783 10.16 132.159 10.16H131.727L131.691 9.8H138.855C141.327 9.8 143.247 10.352 144.615 11.456C145.983 12.536 146.667 13.988 146.667 15.812C146.667 17.252 146.283 18.452 145.515 19.412C144.747 20.348 143.811 20.972 142.707 21.284C144.603 21.572 146.103 22.352 147.207 23.624C148.311 24.896 148.863 26.504 148.863 28.448C148.863 30.368 148.119 31.94 146.631 33.164C145.167 34.388 143.115 35 140.475 35ZM136.803 33.704H140.331C140.355 33.704 140.379 33.704 140.403 33.704C142.227 33.704 143.643 33.212 144.651 32.228C145.659 31.22 146.163 29.804 146.163 27.98C146.163 26.948 145.983 26.048 145.623 25.28C145.287 24.488 144.855 23.864 144.327 23.408C142.935 22.256 140.847 21.68 138.063 21.68C138.063 21.68 138.051 21.68 138.027 21.68V21.356C138.051 21.356 138.159 21.356 138.351 21.356C138.567 21.356 138.867 21.332 139.251 21.284C139.635 21.236 140.067 21.152 140.547 21.032C141.027 20.912 141.459 20.72 141.843 20.456C142.227 20.192 142.587 19.88 142.923 19.52C143.619 18.728 143.967 17.552 143.967 15.992C143.967 14.408 143.511 13.172 142.599 12.284C141.711 11.396 140.415 10.952 138.711 10.952H136.803V33.704ZM158.985 14.516H157.077V32.696C157.101 33.44 157.437 34.004 158.085 34.388C158.397 34.556 158.745 34.64 159.129 34.64H159.597L159.633 35H152.253V34.64H152.757C153.309 34.64 153.777 34.46 154.161 34.1C154.569 33.716 154.773 33.26 154.773 32.732V15.632C154.773 15.104 154.569 14.66 154.161 14.3C153.777 13.94 153.309 13.76 152.757 13.76H152.253V13.4H161.289C163.545 13.4 165.321 13.916 166.617 14.948C167.937 15.98 168.597 17.336 168.597 19.016C168.597 20.696 168.069 22.1 167.013 23.228C165.957 24.356 164.613 25.004 162.981 25.172C163.749 25.508 164.673 26.444 165.753 27.98C165.729 27.98 166.137 28.508 166.977 29.564C167.841 30.62 168.525 31.448 169.029 32.048C169.557 32.624 169.989 33.068 170.325 33.38C171.213 34.22 172.233 34.64 173.385 34.64V35H172.269C170.373 35 168.885 34.628 167.805 33.884C166.989 33.332 166.245 32.648 165.573 31.832C165.429 31.64 164.817 30.8 163.737 29.312C162.681 27.8 162.117 26.996 162.045 26.9C160.749 25.292 159.537 24.488 158.409 24.488V24.128C161.217 24.128 162.909 23.984 163.485 23.696C164.277 23.288 164.817 22.856 165.105 22.4C165.705 21.44 166.005 20.384 166.005 19.232C166.005 17.768 165.573 16.64 164.709 15.848C163.845 15.056 162.681 14.624 161.217 14.552C160.569 14.528 159.825 14.516 158.985 14.516ZM196.604 34.64H196.892V35H189.512V34.64H189.8C190.256 34.64 190.604 34.484 190.844 34.172C191.084 33.86 191.204 33.572 191.204 33.308C191.204 33.02 191.156 32.744 191.06 32.48L189.08 27.692H179.972L177.992 32.372C177.872 32.684 177.812 32.984 177.812 33.272C177.812 33.536 177.932 33.836 178.172 34.172C178.412 34.484 178.772 34.64 179.252 34.64H179.54V35H172.664V34.64H172.952C173.456 34.64 173.96 34.472 174.464 34.136C174.992 33.776 175.424 33.248 175.76 32.552C181.016 21.32 183.752 15.44 183.968 14.912C184.376 13.904 184.592 13.232 184.616 12.896H184.94L193.832 32.552C194.528 33.944 195.452 34.64 196.604 34.64ZM180.44 26.612H188.648L184.616 16.748L180.44 26.612ZM222.887 13.76C222.359 13.76 221.903 13.94 221.519 14.3C221.135 14.636 220.931 15.056 220.907 15.56V30.896C220.907 32.288 220.991 33.608 221.159 34.856L221.231 35.504H220.907L202.187 17.756V32.768C202.187 33.296 202.379 33.74 202.763 34.1C203.147 34.46 203.615 34.64 204.167 34.64H204.779V35H197.975V34.64H198.587C199.139 34.64 199.607 34.46 199.991 34.1C200.375 33.74 200.567 33.296 200.567 32.768V17.36C200.567 15.896 200.483 14.588 200.315 13.436L200.243 12.86L200.639 12.896L219.323 30.5V15.56C219.275 15.056 219.059 14.636 218.675 14.3C218.291 13.94 217.835 13.76 217.307 13.76H216.695V13.4H223.499V13.76H222.887ZM250.33 24.2C250.33 27.536 249.286 30.176 247.198 32.12C245.134 34.04 242.326 35 238.774 35H226.75V34.64H227.218C227.794 34.64 228.274 34.448 228.658 34.064C229.042 33.68 229.246 33.224 229.27 32.696V15.704C229.246 15.128 229.03 14.66 228.622 14.3C228.238 13.94 227.758 13.76 227.182 13.76H226.75V13.4H238.774C241.126 13.4 243.166 13.832 244.894 14.696C246.646 15.56 247.99 16.808 248.926 18.44C249.862 20.072 250.33 21.992 250.33 24.2ZM231.61 14.48V33.92H238.774C241.534 33.92 243.718 33.056 245.326 31.328C246.934 29.576 247.738 27.2 247.738 24.2C247.738 21.2 246.934 18.836 245.326 17.108C243.718 15.356 241.534 14.48 238.774 14.48H231.61Z" fill="#1B1B1B"/>
</svg>
