<svg width="187" height="27" viewBox="0 0 187 27" fill="none" xmlns="http://www.w3.org/2000/svg">
<path d="M32.4 25.64H32.976V26H25.164V25.676H25.704C26.112 25.676 26.46 25.52 26.748 25.208C27.036 24.872 27.156 24.512 27.108 24.128L25.488 6.02L17.928 22.832C17.256 24.296 16.848 25.52 16.704 26.504H16.344L7.128 6.524L5.58 24.128C5.532 24.512 5.652 24.872 5.94 25.208C6.228 25.52 6.564 25.676 6.948 25.676H7.524V26H0.54V25.64H1.116C1.788 25.64 2.364 25.436 2.844 25.028C3.348 24.62 3.648 24.068 3.744 23.372L6.444 0.295998H6.804L16.848 22.004L26.676 0.295998H27L29.772 23.372C29.892 24.332 30.372 25.004 31.212 25.388C31.572 25.556 31.968 25.64 32.4 25.64ZM56.7239 4.76H56.2919C55.6439 4.76 55.0199 4.94 54.4199 5.3C53.8439 5.636 53.3639 6.068 52.9799 6.596L46.0679 17.072V23.696C46.0679 24.224 46.2719 24.68 46.6799 25.064C47.0879 25.448 47.5799 25.64 48.1559 25.64H48.5879V26H41.2079V25.64H41.6399C42.2159 25.64 42.7079 25.448 43.1159 25.064C43.5239 24.68 43.7279 24.224 43.7279 23.696V17.036L37.0679 6.56C36.2519 5.36 35.1479 4.76 33.7559 4.76H33.3239V4.4H41.6759V4.76H41.2439C40.7879 4.76 40.4519 4.904 40.2359 5.192C40.0439 5.48 39.9479 5.732 39.9479 5.948C39.9479 6.14 39.9719 6.32 40.0199 6.488L45.2759 15.812L50.8559 6.524C50.9279 6.332 50.9639 6.14 50.9639 5.948C50.9639 5.732 50.8559 5.48 50.6399 5.192C50.4479 4.904 50.1119 4.76 49.6319 4.76H49.1999V4.4H56.7239V4.76ZM76.4753 26H67.6913L67.7273 25.64H68.1593C68.7833 25.64 69.3113 25.424 69.7433 24.992C70.1993 24.56 70.4393 24.032 70.4633 23.408V3.392C70.4633 2.768 70.2353 2.24 69.7793 1.808C69.3233 1.376 68.7833 1.16 68.1593 1.16H67.7273L67.6913 0.799998H74.8553C77.3273 0.799998 79.2473 1.352 80.6153 2.456C81.9833 3.536 82.6673 4.988 82.6673 6.812C82.6673 8.252 82.2833 9.452 81.5153 10.412C80.7473 11.348 79.8113 11.972 78.7073 12.284C80.6033 12.572 82.1033 13.352 83.2073 14.624C84.3113 15.896 84.8633 17.504 84.8633 19.448C84.8633 21.368 84.1193 22.94 82.6313 24.164C81.1673 25.388 79.1153 26 76.4753 26ZM72.8033 24.704H76.3313C76.3553 24.704 76.3793 24.704 76.4033 24.704C78.2273 24.704 79.6433 24.212 80.6513 23.228C81.6593 22.22 82.1633 20.804 82.1633 18.98C82.1633 17.948 81.9833 17.048 81.6233 16.28C81.2873 15.488 80.8553 14.864 80.3273 14.408C78.9353 13.256 76.8473 12.68 74.0633 12.68C74.0633 12.68 74.0513 12.68 74.0273 12.68V12.356C74.0513 12.356 74.1593 12.356 74.3513 12.356C74.5673 12.356 74.8673 12.332 75.2513 12.284C75.6353 12.236 76.0673 12.152 76.5473 12.032C77.0273 11.912 77.4593 11.72 77.8433 11.456C78.2273 11.192 78.5873 10.88 78.9233 10.52C79.6193 9.728 79.9673 8.552 79.9673 6.992C79.9673 5.408 79.5113 4.172 78.5993 3.284C77.7113 2.396 76.4153 1.952 74.7113 1.952H72.8033V24.704ZM94.9854 5.516H93.0774V23.696C93.1014 24.44 93.4374 25.004 94.0854 25.388C94.3974 25.556 94.7454 25.64 95.1294 25.64H95.5974L95.6334 26H88.2534V25.64H88.7574C89.3094 25.64 89.7774 25.46 90.1614 25.1C90.5694 24.716 90.7734 24.26 90.7734 23.732V6.632C90.7734 6.104 90.5694 5.66 90.1614 5.3C89.7774 4.94 89.3094 4.76 88.7574 4.76H88.2534V4.4H97.2894C99.5454 4.4 101.321 4.916 102.617 5.948C103.937 6.98 104.597 8.336 104.597 10.016C104.597 11.696 104.069 13.1 103.013 14.228C101.957 15.356 100.613 16.004 98.9814 16.172C99.7494 16.508 100.673 17.444 101.753 18.98C101.729 18.98 102.137 19.508 102.977 20.564C103.841 21.62 104.525 22.448 105.029 23.048C105.557 23.624 105.989 24.068 106.325 24.38C107.213 25.22 108.233 25.64 109.385 25.64V26H108.269C106.373 26 104.885 25.628 103.805 24.884C102.989 24.332 102.245 23.648 101.573 22.832C101.429 22.64 100.817 21.8 99.7374 20.312C98.6814 18.8 98.1174 17.996 98.0454 17.9C96.7494 16.292 95.5374 15.488 94.4094 15.488V15.128C97.2174 15.128 98.9094 14.984 99.4854 14.696C100.277 14.288 100.817 13.856 101.105 13.4C101.705 12.44 102.005 11.384 102.005 10.232C102.005 8.768 101.573 7.64 100.709 6.848C99.8454 6.056 98.6814 5.624 97.2174 5.552C96.5694 5.528 95.8254 5.516 94.9854 5.516ZM132.604 25.64H132.892V26H125.512V25.64H125.8C126.256 25.64 126.604 25.484 126.844 25.172C127.084 24.86 127.204 24.572 127.204 24.308C127.204 24.02 127.156 23.744 127.06 23.48L125.08 18.692H115.972L113.992 23.372C113.872 23.684 113.812 23.984 113.812 24.272C113.812 24.536 113.932 24.836 114.172 25.172C114.412 25.484 114.772 25.64 115.252 25.64H115.54V26H108.664V25.64H108.952C109.456 25.64 109.96 25.472 110.464 25.136C110.992 24.776 111.424 24.248 111.76 23.552C117.016 12.32 119.752 6.44 119.968 5.912C120.376 4.904 120.592 4.232 120.616 3.896H120.94L129.832 23.552C130.528 24.944 131.452 25.64 132.604 25.64ZM116.44 17.612H124.648L120.616 7.748L116.44 17.612ZM158.887 4.76C158.359 4.76 157.903 4.94 157.519 5.3C157.135 5.636 156.931 6.056 156.907 6.56V21.896C156.907 23.288 156.991 24.608 157.159 25.856L157.231 26.504H156.907L138.187 8.756V23.768C138.187 24.296 138.379 24.74 138.763 25.1C139.147 25.46 139.615 25.64 140.167 25.64H140.779V26H133.975V25.64H134.587C135.139 25.64 135.607 25.46 135.991 25.1C136.375 24.74 136.567 24.296 136.567 23.768V8.36C136.567 6.896 136.483 5.588 136.315 4.436L136.243 3.86L136.639 3.896L155.323 21.5V6.56C155.275 6.056 155.059 5.636 154.675 5.3C154.291 4.94 153.835 4.76 153.307 4.76H152.695V4.4H159.499V4.76H158.887ZM186.33 15.2C186.33 18.536 185.286 21.176 183.198 23.12C181.134 25.04 178.326 26 174.774 26H162.75V25.64H163.218C163.794 25.64 164.274 25.448 164.658 25.064C165.042 24.68 165.246 24.224 165.27 23.696V6.704C165.246 6.128 165.03 5.66 164.622 5.3C164.238 4.94 163.758 4.76 163.182 4.76H162.75V4.4H174.774C177.126 4.4 179.166 4.832 180.894 5.696C182.646 6.56 183.99 7.808 184.926 9.44C185.862 11.072 186.33 12.992 186.33 15.2ZM167.61 5.48V24.92H174.774C177.534 24.92 179.718 24.056 181.326 22.328C182.934 20.576 183.738 18.2 183.738 15.2C183.738 12.2 182.934 9.836 181.326 8.108C179.718 6.356 177.534 5.48 174.774 5.48H167.61Z" fill="#EBEBEB"/>
</svg>
