<svg width="32" height="32" viewBox="0 0 32 32" fill="none" xmlns="http://www.w3.org/2000/svg">
<path d="M25.5006 27.4114L4.7853 6.26809C4.3217 5.79499 4.3295 5.03469 4.8026 4.57119C5.2758 4.10759 6.036 4.11539 6.4996 4.58849L27.215 25.7318C27.6785 26.205 27.6708 26.9652 27.1976 27.4288C26.7245 27.8924 25.9642 27.8846 25.5006 27.4114Z" fill="#EBEBEB"/>
<path d="M4.57102 27.1973C4.10752 26.7242 4.11522 25.964 4.58842 25.5004L25.7317 4.78505C26.2049 4.32145 26.9651 4.32925 27.4287 4.80245C27.8922 5.27555 27.8845 6.03585 27.4113 6.49935L6.26802 27.2147C5.79482 27.6783 5.03462 27.6705 4.57102 27.1973Z" fill="#EBEBEB"/>
</svg>
