<svg width="32" height="32" viewBox="0 0 32 32" fill="none" xmlns="http://www.w3.org/2000/svg">
<g clip-path="url(#clip0)">
<path d="M16 22.6667C15.448 22.6667 15 22.2188 15 21.6667V1C15 0.447998 15.448 0 16 0C16.552 0 17 0.447998 17 1V21.6667C17 22.2188 16.552 22.6667 16 22.6667Z" fill="#1B1B1B"/>
<path d="M16 22.6667C15.7439 22.6667 15.488 22.5693 15.2932 22.3733L9.95996 17.04C9.56934 16.6494 9.56934 16.0161 9.95996 15.6252C10.3506 15.2346 10.9839 15.2346 11.3748 15.6252L16.0012 20.252L20.6279 15.6252C21.0186 15.2346 21.6521 15.2346 22.0427 15.6252C22.4333 16.0161 22.4333 16.6494 22.0427 17.04L16.7092 22.3733C16.512 22.5693 16.2561 22.6667 16 22.6667Z" fill="#1B1B1B"/>
<path d="M28.3333 32H3.66675C1.64404 32 0 30.356 0 28.3333V22.3333C0 21.7812 0.447998 21.3333 1 21.3333C1.552 21.3333 2 21.7812 2 22.3333V28.3333C2 29.252 2.74805 30 3.66675 30H28.3333C29.252 30 30 29.252 30 28.3333V22.3333C30 21.7812 30.448 21.3333 31 21.3333C31.552 21.3333 32 21.7812 32 22.3333V28.3333C32 30.356 30.356 32 28.3333 32Z" fill="#1B1B1B"/>
</g>
<defs>
<clipPath id="clip0">
<rect width="32" height="32" fill="white"/>
</clipPath>
</defs>
</svg>
