<svg width="32" height="32" viewBox="0 0 32 32" fill="none" xmlns="http://www.w3.org/2000/svg">
<g clip-path="url(#clip0)">
<path d="M25.0002 32.0001H7.00059C5.34608 32.0001 4.00065 30.6547 4.00065 29.0002V17.3337H1.66745C0.748764 17.3337 0.000732422 16.5857 0.000732422 15.667C0.000732422 15.2258 0.180904 14.7937 0.49413 14.4805L15.3085 0.278131C15.6952 -0.0927105 16.3058 -0.0927105 16.6925 0.278131L31.4923 14.4644C31.8201 14.7937 32.0001 15.2258 32.0001 15.667C32.0001 16.5857 31.2523 17.3337 30.3336 17.3337H28.0001V29.0002C28.0001 30.6547 26.655 32.0001 25.0002 32.0001ZM2.49287 15.3337H5.00063C5.55262 15.3337 6.00061 15.7817 6.00061 16.3337V29.0002C6.00061 29.5522 6.4486 30.0002 7.00059 30.0002H25.0002C25.5522 30.0002 26.0002 29.5522 26.0002 29.0002V16.3337C26.0002 15.7817 26.4482 15.3337 27.0002 15.3337H29.5082L16.0004 2.386L2.49287 15.3337ZM30.0936 15.8938H30.1068H30.0936Z" fill="#1B1B1B"/>
</g>
<defs>
<clipPath id="clip0">
<rect width="32" height="32" fill="white"/>
</clipPath>
</defs>
</svg>
