<svg width="32" height="32" viewBox="0 0 32 32" fill="none" xmlns="http://www.w3.org/2000/svg">
<path d="M25.6458 10C22.8899 10 20.6458 7.75732 20.6458 5C20.6458 2.24268 22.8899 0 25.6458 0C28.4019 0 30.6458 2.24268 30.6458 5C30.6458 7.75732 28.4019 10 25.6458 10ZM25.6458 2C23.9924 2 22.6458 3.34521 22.6458 5C22.6458 6.65479 23.9924 8 25.6458 8C27.2991 8 28.6458 6.65479 28.6458 5C28.6458 3.34521 27.2991 2 25.6458 2Z" fill="#1B1B1B"/>
<path d="M25.6458 32C22.8899 32 20.6458 29.7573 20.6458 27C20.6458 24.2427 22.8899 22 25.6458 22C28.4019 22 30.6458 24.2427 30.6458 27C30.6458 29.7573 28.4019 32 25.6458 32ZM25.6458 24C23.9924 24 22.6458 25.3452 22.6458 27C22.6458 28.6548 23.9924 30 25.6458 30C27.2991 30 28.6458 28.6548 28.6458 27C28.6458 25.3452 27.2991 24 25.6458 24Z" fill="#1B1B1B"/>
<path d="M6.3125 21C3.5564 21 1.3125 18.7573 1.3125 16C1.3125 13.2427 3.5564 11 6.3125 11C9.0686 11 11.3125 13.2427 11.3125 16C11.3125 18.7573 9.0686 21 6.3125 21ZM6.3125 13C4.65918 13 3.3125 14.3452 3.3125 16C3.3125 17.6548 4.65918 19 6.3125 19C7.96582 19 9.3125 17.6548 9.3125 16C9.3125 14.3452 7.96582 13 6.3125 13Z" fill="#1B1B1B"/>
<path d="M9.79395 15.0266C9.44581 15.0266 9.10718 14.8452 8.92457 14.5227C8.65113 14.0427 8.81788 13.4319 9.29786 13.1587L21.6699 6.10523C22.1484 5.82935 22.7605 5.99732 23.0325 6.47876C23.3059 6.95874 23.1392 7.56934 22.6592 7.84278L10.2871 14.896C10.1311 14.9839 9.96192 15.0266 9.79395 15.0266Z" fill="#1B1B1B"/>
<path d="M22.1646 26.0266C21.9966 26.0266 21.8272 25.9838 21.6712 25.8947L9.29909 18.8413C8.81911 18.5681 8.65261 17.9572 8.9258 17.4773C9.19777 16.9961 9.80861 16.8293 10.2886 17.104L22.6604 24.1572C23.1404 24.4306 23.3071 25.0412 23.034 25.5212C22.8499 25.8452 22.5112 26.0266 22.1646 26.0266Z" fill="#1B1B1B"/>
</svg>
