<svg width="32" height="32" viewBox="0 0 32 32" fill="none" xmlns="http://www.w3.org/2000/svg">
<path d="M17.3333 24C17.3333 24.7363 16.7363 25.3333 16 25.3333C15.2637 25.3333 14.6667 24.7363 14.6667 24C14.6667 23.2637 15.2637 22.6667 16 22.6667C16.7363 22.6667 17.3333 23.2637 17.3333 24Z" fill="#1B1B1B"/>
<path d="M16 20C15.448 20 15 19.552 15 19V7.66675C15 7.11475 15.448 6.66675 16 6.66675C16.552 6.66675 17 7.11475 17 7.66675V19C17 19.552 16.552 20 16 20Z" fill="#1B1B1B"/>
<path d="M16 32C7.17725 32 0 24.8228 0 16C0 7.17725 7.17725 0 16 0C24.8228 0 32 7.17725 32 16C32 24.8228 24.8228 32 16 32ZM16 2C8.28003 2 2 8.28003 2 16C2 23.72 8.28003 30 16 30C23.72 30 30 23.72 30 16C30 8.28003 23.72 2 16 2Z" fill="#1B1B1B"/>
</svg>
